<svg xmlns="http://www.w3.org/2000/svg" xmlns:xlink="http://www.w3.org/1999/xlink" version="1.1" width="256" height="256" viewBox="0 0 256 256" xml:space="preserve">

<defs>
</defs>
<g style="stroke: none; stroke-width: 0; stroke-dasharray: none; stroke-linecap: butt; stroke-linejoin: miter; stroke-miterlimit: 10; fill: none; fill-rule: nonzero; opacity: 1;" transform="translate(1.4065934065934016 1.4065934065934016) scale(2.81 2.81)" >
	<path d="M 45 90 C 20.187 90 0 69.813 0 45 C 0 20.187 20.187 0 45 0 c 24.813 0 45 20.187 45 45 C 90 69.813 69.813 90 45 90 z M 45 2 C 21.29 2 2 21.29 2 45 c 0 23.71 19.29 43 43 43 c 23.71 0 43 -19.29 43 -43 C 88 21.29 68.71 2 45 2 z" style="stroke: none; stroke-width: 1; stroke-dasharray: none; stroke-linecap: butt; stroke-linejoin: miter; stroke-miterlimit: 10; fill: rgb(0,0,0); fill-rule: nonzero; opacity: 1;" transform=" matrix(1 0 0 1 0 0) " stroke-linecap="round" />
	<path d="M 88.157 51.89 c -1.483 0 -1.829 -1.387 -2.006 -2.098 c -0.132 -0.529 -0.269 -1.075 -0.633 -1.466 c -1.364 -1.46 -2.212 -3.55 -2.387 -5.885 c -0.021 -0.285 -0.036 -0.578 -0.05 -0.874 c -0.06 -1.254 -0.116 -2.438 -0.793 -3.127 c -0.829 -0.843 -2.385 -0.726 -3.892 -0.613 l -0.486 0.036 c -2.293 0.158 -4.352 -0.125 -6.116 -0.838 c -2.146 -0.867 -3.832 -2.371 -4.746 -4.235 c -0.243 -0.496 -0.039 -1.095 0.457 -1.338 c 0.496 -0.243 1.096 -0.037 1.338 0.458 c 0.688 1.4 2.036 2.589 3.7 3.261 c 1.482 0.599 3.247 0.835 5.23 0.698 l 0.474 -0.035 c 1.772 -0.133 3.986 -0.301 5.467 1.205 c 1.213 1.233 1.294 2.934 1.365 4.435 c 0.013 0.276 0.025 0.55 0.046 0.818 c 0.142 1.883 0.8 3.542 1.854 4.67 c 0.719 0.77 0.946 1.682 1.112 2.348 c 0.047 0.188 0.107 0.433 0.162 0.573 c 0.034 -0.004 0.078 -0.012 0.134 -0.024 c 0.537 -0.125 1.075 0.208 1.2 0.747 c 0.126 0.538 -0.209 1.075 -0.747 1.2 C 88.59 51.863 88.362 51.89 88.157 51.89 z" style="stroke: none; stroke-width: 1; stroke-dasharray: none; stroke-linecap: butt; stroke-linejoin: miter; stroke-miterlimit: 10; fill: rgb(0,0,0); fill-rule: nonzero; opacity: 1;" transform=" matrix(1 0 0 1 0 0) " stroke-linecap="round" />
	<path d="M 65.81 47.752 c -0.353 0 -0.694 -0.187 -0.877 -0.518 c -0.267 -0.483 -0.09 -1.092 0.394 -1.358 c 1.565 -0.862 3.373 -1.524 5.122 -2.165 c 1.678 -0.615 3.413 -1.251 4.845 -2.04 c 0.642 -0.353 1.304 -0.718 1.77 -1.199 c 0.166 -0.169 0.191 -0.254 0.191 -0.254 c -0.002 0.002 -0.081 -0.126 -0.118 -0.194 c -0.302 -0.567 -0.573 -0.817 -0.918 -1.134 c -0.377 -0.347 -0.804 -0.739 -1.262 -1.494 c -0.287 -0.472 -0.137 -1.087 0.335 -1.374 c 0.476 -0.286 1.089 -0.137 1.374 0.335 c 0.312 0.512 0.587 0.766 0.906 1.059 c 0.407 0.375 0.868 0.798 1.329 1.666 c 0.13 0.242 0.327 0.612 0.349 1.08 c 0.028 0.588 -0.225 1.162 -0.751 1.703 c -0.673 0.695 -1.506 1.153 -2.24 1.558 c -1.565 0.862 -3.373 1.524 -5.122 2.165 c -1.678 0.615 -3.413 1.251 -4.845 2.04 C 66.138 47.712 65.973 47.752 65.81 47.752 z" style="stroke: none; stroke-width: 1; stroke-dasharray: none; stroke-linecap: butt; stroke-linejoin: miter; stroke-miterlimit: 10; fill: rgb(0,0,0); fill-rule: nonzero; opacity: 1;" transform=" matrix(1 0 0 1 0 0) " stroke-linecap="round" />
	<path d="M 21.692 83.323 c -0.187 0 -0.375 -0.052 -0.543 -0.161 c -0.463 -0.301 -0.595 -0.92 -0.294 -1.383 c 0.511 -0.788 0.315 -1.451 -0.105 -2.651 c -0.364 -1.038 -0.816 -2.331 -0.41 -3.833 c 0.712 -2.63 0.342 -5.208 -0.99 -6.895 c -1.366 -1.729 -3.679 -2.571 -5.917 -3.386 l -0.117 -0.043 c -2.711 -0.987 -4.56 -2.6 -6.346 -4.159 c -1.516 -1.322 -2.948 -2.571 -4.914 -3.519 c -0.498 -0.24 -0.707 -0.838 -0.467 -1.335 c 0.241 -0.498 0.838 -0.706 1.335 -0.468 c 2.209 1.065 3.812 2.463 5.361 3.814 c 1.725 1.505 3.354 2.927 5.716 3.787 l 0.116 0.042 c 2.383 0.868 5.084 1.851 6.802 4.025 c 1.723 2.183 2.228 5.419 1.351 8.658 c -0.245 0.903 0.039 1.712 0.367 2.648 c 0.43 1.227 0.964 2.753 -0.105 4.4 C 22.341 83.163 22.02 83.323 21.692 83.323 z" style="stroke: none; stroke-width: 1; stroke-dasharray: none; stroke-linecap: butt; stroke-linejoin: miter; stroke-miterlimit: 10; fill: rgb(0,0,0); fill-rule: nonzero; opacity: 1;" transform=" matrix(1 0 0 1 0 0) " stroke-linecap="round" />
	<path d="M 48.03 81.699 c -0.798 0 -1.564 -0.144 -2.263 -0.433 c -1.044 -0.433 -1.91 -1.179 -2.437 -2.102 c -0.326 -0.57 -0.502 -1.158 -0.672 -1.727 c -0.049 -0.164 -0.098 -0.328 -0.15 -0.49 c -0.331 -1.014 -0.809 -2.414 -1.323 -3.917 c -0.881 -2.578 -1.879 -5.5 -2.408 -7.281 c -0.249 -0.841 -0.392 -1.689 -0.53 -2.51 c -0.096 -0.571 -0.191 -1.143 -0.325 -1.706 c -0.368 -1.556 -1.044 -3.08 -1.697 -4.555 c -0.255 -0.577 -0.545 -1.23 -0.98 -1.584 c -0.417 -0.339 -1.053 -0.488 -1.667 -0.633 l -5.159 -1.216 c -1.193 -0.282 -2.426 -0.573 -3.579 -1.201 c -2.355 -1.283 -3.767 -3.703 -4.624 -5.411 c -1.98 -3.95 -2.322 -7.449 -0.987 -10.121 c 0.828 -1.657 1.427 -2.854 3.157 -4.167 c 0.667 -0.506 1.018 -1.004 1.39 -1.532 c 0.767 -1.088 1.561 -2.214 4.53 -2.842 c 0.079 -0.017 0.159 -0.024 0.239 -0.021 c 6.203 0.197 10.224 2.346 13.455 4.072 c 3.656 1.954 6.072 3.242 9.933 1.396 c 0.994 -0.476 1.835 -1.123 2.727 -1.808 c 0.739 -0.568 1.504 -1.156 2.389 -1.668 c 0.287 -0.166 0.415 -0.312 0.454 -0.375 c -0.012 -0.003 -0.033 -0.032 -0.073 -0.082 c -0.356 -0.084 -1.364 0.034 -1.921 0.1 c -0.973 0.116 -1.813 0.216 -2.417 0.012 c -1.043 -0.35 -1.397 -1.588 -1.71 -2.681 c -0.012 -0.041 -0.023 -0.085 -0.037 -0.131 c -0.959 0.824 -2.032 1.52 -2.889 1.555 c -1.663 0.085 -2.078 -1.613 -2.321 -2.616 c -0.133 -0.553 -0.299 -1.241 -0.557 -1.457 c -0.113 -0.095 -0.456 -0.382 -0.702 -0.399 c -0.509 -0.029 -1.097 0.997 -1.321 1.384 c -0.107 0.187 -0.21 0.601 -0.301 0.967 c -0.209 0.844 -0.426 1.718 -1.136 2.141 c -0.353 0.21 -0.759 0.263 -1.172 0.157 c -1.33 -0.343 -1.604 -1.872 -1.845 -3.22 c -0.097 -0.539 -0.258 -1.441 -0.443 -1.636 c -0.344 -0.328 -2.324 -0.241 -3.328 0.249 c -0.546 0.266 -1.052 0.661 -1.588 1.08 c -0.389 0.304 -0.778 0.606 -1.191 0.874 c -1.713 1.111 -3.772 1.595 -5.803 1.369 c -1.082 -0.122 -1.923 -0.437 -2.572 -0.965 c -0.923 -0.751 -1.356 -1.955 -1.077 -2.994 c 0.035 -0.15 0.032 -0.694 0.03 -1.054 c -0.008 -1.465 -0.015 -2.848 0.988 -3.349 c 1.588 -0.793 4.104 -1.183 5.642 -1.32 c 0.22 -0.531 0.396 -0.905 0.534 -1.199 c 0.39 -0.83 0.39 -0.83 0.304 -2.909 c -0.013 -0.312 0.121 -0.612 0.361 -0.812 c 0.24 -0.199 0.562 -0.275 0.865 -0.204 c 1.053 0.245 1.436 0.065 2.199 -0.292 c 0.552 -0.26 1.24 -0.583 2.281 -0.769 c 0.527 -0.094 1.257 -0.043 2.1 0.016 c 0.75 0.053 2.307 0.161 2.66 -0.056 c 0.488 -0.557 0.703 -1.506 0.892 -2.344 c 0.28 -1.239 0.775 -1.994 1.348 -2.869 c 0.266 -0.406 0.561 -0.856 0.885 -1.427 c -0.465 -0.05 -0.786 -0.121 -1.014 -0.171 c -0.004 -0.001 -0.009 -0.002 -0.014 -0.003 c -0.109 0.123 -0.255 0.301 -0.364 0.434 c -0.421 0.514 -1.356 2.19 -1.74 2.945 c -0.043 0.084 -0.097 0.161 -0.161 0.23 c -0.109 0.116 -0.208 0.236 -0.305 0.353 c -0.408 0.49 -0.916 1.099 -1.842 1.287 c -0.591 0.12 -1.161 0.12 -1.691 0.103 c -0.737 -0.024 -1.522 -0.095 -2.261 -0.451 c -0.964 -0.466 -1.6 -1.343 -1.659 -2.29 c -0.045 -0.73 0.252 -1.363 0.47 -1.826 c 0.914 -1.942 2.812 -2.896 4.486 -3.739 c 0.904 -0.455 1.757 -0.884 2.214 -1.367 c 0.379 -0.402 1.013 -0.42 1.414 -0.041 c 0.402 0.379 0.419 1.012 0.041 1.414 c -0.698 0.739 -1.705 1.245 -2.77 1.781 c -1.453 0.731 -2.956 1.486 -3.575 2.803 c -0.139 0.296 -0.297 0.632 -0.284 0.85 c 0.014 0.212 0.237 0.47 0.533 0.613 c 0.38 0.184 0.858 0.234 1.457 0.253 c 0.409 0.013 0.838 0.015 1.228 -0.064 c 0.217 -0.044 0.365 -0.201 0.704 -0.607 c 0.091 -0.109 0.184 -0.221 0.283 -0.331 c 0.328 -0.631 1.318 -2.458 1.912 -3.183 c 0.807 -0.987 1.181 -1.38 2.357 -1.117 c 0.317 0.07 0.797 0.176 1.698 0.184 c 0.548 0.005 0.991 0.45 0.991 0.999 l 0.002 1 c 0 0.165 -0.04 0.328 -0.118 0.474 c -0.458 0.854 -0.871 1.484 -1.203 1.991 c -0.542 0.827 -0.869 1.327 -1.069 2.213 c -0.231 1.021 -0.519 2.292 -1.395 3.273 c -0.821 0.92 -2.488 0.804 -4.249 0.681 c -0.621 -0.043 -1.325 -0.092 -1.609 -0.042 c -0.78 0.139 -1.289 0.378 -1.781 0.61 c -0.623 0.293 -1.262 0.593 -2.207 0.593 c -0.01 0 -0.021 0 -0.03 0 c 0.027 1.355 -0.082 1.705 -0.532 2.664 c -0.172 0.366 -0.405 0.862 -0.717 1.664 c -0.143 0.367 -0.487 0.616 -0.88 0.636 c -1.635 0.085 -3.986 0.485 -5.301 1.067 c -0.083 0.361 -0.079 1.178 -0.076 1.641 c 0.004 0.739 0.001 1.21 -0.099 1.583 c -0.074 0.277 0.101 0.675 0.407 0.924 c 0.342 0.278 0.844 0.451 1.534 0.529 c 1.548 0.172 3.184 -0.212 4.492 -1.06 c 0.363 -0.235 0.705 -0.504 1.048 -0.771 c 0.594 -0.464 1.209 -0.944 1.944 -1.302 c 1.069 -0.52 4.321 -1.231 5.653 0.173 c 0.598 0.63 0.775 1.616 0.962 2.661 c 0.047 0.264 0.115 0.644 0.197 0.979 c 0.017 -0.066 0.032 -0.129 0.046 -0.186 c 0.128 -0.519 0.261 -1.055 0.51 -1.486 c 0.432 -0.748 1.443 -2.512 3.187 -2.378 c 0.805 0.054 1.443 0.518 1.854 0.862 c 0.762 0.639 1.003 1.638 1.216 2.519 c 0.09 0.372 0.24 0.994 0.374 1.128 c 0.407 -0.063 1.563 -1.009 2.486 -1.944 c 0.044 -0.057 0.095 -0.109 0.15 -0.155 c 0.383 -0.398 0.713 -0.786 0.913 -1.094 c 0.125 -0.191 0.246 -0.387 0.367 -0.583 c 0.546 -0.884 1.164 -1.887 2.171 -2.548 c 1.339 -0.88 3.165 -1.007 5.01 -0.345 c 1.525 0.546 2.531 1.546 2.759 2.744 c 0.318 1.675 -0.956 3.156 -2.316 3.701 c -1.209 0.484 -2.495 0.419 -3.632 0.361 l -0.106 -0.005 c -0.457 -0.022 -1.033 -0.146 -1.644 -0.278 c -0.358 -0.077 -0.919 -0.198 -1.423 -0.27 c 0.039 0.132 0.078 0.266 0.116 0.402 c 0.122 0.424 0.319 1.115 0.486 1.345 c 0.28 0.029 0.997 -0.055 1.481 -0.112 c 1.489 -0.176 2.893 -0.343 3.614 0.509 c 0.245 0.29 0.537 0.692 0.606 1.232 c 0.117 0.884 -0.409 1.735 -1.442 2.333 c -0.772 0.446 -1.452 0.969 -2.172 1.522 c -0.934 0.718 -1.898 1.46 -3.082 2.026 c -4.774 2.287 -8.002 0.562 -11.738 -1.436 c -3.184 -1.701 -6.789 -3.627 -12.454 -3.833 c -2.1 0.463 -2.537 1.083 -3.193 2.013 c -0.401 0.57 -0.901 1.279 -1.815 1.972 c -1.304 0.99 -1.732 1.779 -2.577 3.469 c -1.316 2.635 -0.19 5.985 0.986 8.331 c 0.736 1.468 1.93 3.537 3.792 4.552 c 0.917 0.499 2.017 0.759 3.081 1.01 l 5.158 1.216 c 0.756 0.179 1.697 0.399 2.47 1.027 c 0.809 0.657 1.219 1.583 1.548 2.326 c 0.69 1.558 1.404 3.169 1.815 4.904 c 0.144 0.606 0.248 1.221 0.351 1.835 c 0.134 0.797 0.261 1.55 0.475 2.273 c 0.516 1.742 1.508 4.644 2.382 7.203 c 0.517 1.513 0.999 2.923 1.332 3.943 c 0.058 0.179 0.112 0.357 0.166 0.537 c 0.144 0.481 0.279 0.936 0.492 1.307 c 0.309 0.541 0.829 0.983 1.465 1.247 c 1.137 0.471 2.599 0.349 4.008 -0.335 c 0.538 -0.262 1.353 -1.969 1.892 -3.099 c 0.618 -1.297 1.152 -2.418 1.8 -3.038 c 3.37 -3.229 6.929 -7.176 7.78 -11.957 c 0.039 -0.22 0.073 -0.442 0.107 -0.666 c 0.162 -1.051 0.345 -2.241 1.052 -3.251 c 0.608 -0.868 1.48 -1.418 2.249 -1.902 c 0.282 -0.179 0.564 -0.356 0.832 -0.55 c 1.052 -0.764 1.892 -1.851 2.365 -3.061 c 0.254 -0.647 0.324 -1.175 0.211 -1.57 c -0.237 -0.827 -1.266 -1.301 -2.354 -1.803 c -0.392 -0.181 -0.781 -0.36 -1.143 -0.557 c -1.499 -0.815 -2.729 -2.114 -3.462 -3.656 c -0.34 -0.716 -0.578 -1.478 -0.809 -2.214 c -0.436 -1.389 -0.847 -2.702 -1.845 -3.344 c -0.465 -0.299 -0.599 -0.917 -0.3 -1.382 c 0.299 -0.465 0.919 -0.6 1.382 -0.3 c 1.608 1.035 2.173 2.838 2.671 4.428 c 0.22 0.701 0.427 1.364 0.707 1.954 c 0.553 1.162 1.479 2.142 2.61 2.756 c 0.324 0.176 0.673 0.335 1.024 0.498 c 1.383 0.637 2.95 1.358 3.439 3.067 c 0.241 0.837 0.153 1.771 -0.271 2.851 c -0.61 1.562 -1.695 2.965 -3.053 3.951 c -0.303 0.219 -0.621 0.421 -0.939 0.622 c -0.669 0.422 -1.301 0.82 -1.678 1.359 c -0.439 0.627 -0.572 1.491 -0.714 2.406 c -0.036 0.239 -0.073 0.479 -0.115 0.714 c -0.952 5.347 -4.763 9.597 -8.364 13.049 c -0.384 0.368 -0.913 1.477 -1.38 2.456 c -0.851 1.784 -1.654 3.47 -2.823 4.036 C 50.297 81.425 49.135 81.699 48.03 81.699 z M 57.485 29.802 L 57.485 29.802 L 57.485 29.802 z M 53.834 24.339 c 0.396 0.068 0.799 0.155 1.198 0.241 c 0.505 0.108 1.026 0.221 1.321 0.235 l 0.108 0.006 c 1.021 0.051 1.986 0.099 2.789 -0.222 c 0.616 -0.246 1.203 -0.896 1.094 -1.47 c -0.091 -0.476 -0.64 -0.938 -1.468 -1.234 c -1.23 -0.439 -2.439 -0.39 -3.238 0.134 c -0.636 0.417 -1.088 1.15 -1.567 1.926 C 53.992 24.084 53.914 24.212 53.834 24.339 z" style="stroke: none; stroke-width: 1; stroke-dasharray: none; stroke-linecap: butt; stroke-linejoin: miter; stroke-miterlimit: 10; fill: rgb(0,0,0); fill-rule: nonzero; opacity: 1;" transform=" matrix(1 0 0 1 0 0) " stroke-linecap="round" />
	<path d="M 27.137 14.704 c -0.083 0 -0.162 -0.001 -0.236 -0.003 l -2.053 -0.043 c -0.438 -0.009 -0.987 -0.02 -1.535 -0.257 c -0.775 -0.335 -1.276 -1.045 -1.275 -1.809 c 0.001 -0.896 0.678 -1.681 1.724 -2 c 0.183 -0.056 0.372 -0.099 0.561 -0.141 c 0.268 -0.06 0.521 -0.116 0.666 -0.21 c 0.191 -0.125 0.265 -0.341 0.4 -0.84 c 0.128 -0.473 0.288 -1.062 0.743 -1.56 c 0.514 -0.562 1.178 -0.79 1.822 -0.625 c 0.98 0.251 1.562 1.295 1.762 2.113 c 0.199 0.817 0.143 1.623 0.093 2.333 c -0.044 0.644 -0.149 2.154 -1.404 2.785 C 27.96 14.671 27.508 14.704 27.137 14.704 z M 24.158 12.584 c 0.188 0.063 0.464 0.068 0.732 0.073 l 2.053 0.043 c 0.184 0.004 0.464 0.01 0.564 -0.04 c 0.071 -0.036 0.243 -0.218 0.307 -1.137 c 0.042 -0.593 0.084 -1.206 -0.042 -1.72 c -0.051 -0.211 -0.141 -0.392 -0.223 -0.513 c -0.106 0.176 -0.165 0.392 -0.23 0.633 c -0.165 0.606 -0.39 1.437 -1.236 1.991 l 0 0 c -0.45 0.294 -0.936 0.402 -1.327 0.489 c -0.138 0.031 -0.277 0.061 -0.411 0.102 C 24.272 12.527 24.209 12.556 24.158 12.584 z M 25.536 11.078 h 0.01 H 25.536 z" style="stroke: none; stroke-width: 1; stroke-dasharray: none; stroke-linecap: butt; stroke-linejoin: miter; stroke-miterlimit: 10; fill: rgb(0,0,0); fill-rule: nonzero; opacity: 1;" transform=" matrix(1 0 0 1 0 0) " stroke-linecap="round" />
	<path d="M 60.422 79.954 c -1.561 0 -2.766 -0.577 -3.361 -1.634 c -0.332 -0.589 -0.356 -1.214 -0.066 -1.716 c 0.17 -0.299 0.418 -0.478 0.566 -0.584 c 0.001 -0.001 0.016 -0.012 0.016 -0.012 c 1.245 -0.893 2.253 -2.098 2.995 -3.583 c 0.607 -1.213 1.568 -2.682 3.624 -3.289 c 0.7 -0.207 1.16 -0.002 1.421 0.209 c 0.517 0.408 0.521 1.038 0.521 1.245 c 0.012 2.852 -0.922 5.678 -2.628 7.96 c -0.273 0.366 -0.591 0.742 -1.058 1.002 c -0.447 0.247 -0.919 0.322 -1.322 0.364 C 60.887 79.941 60.65 79.954 60.422 79.954 z M 58.931 77.496 c 0.418 0.428 1.272 0.508 1.995 0.431 c 0.202 -0.021 0.426 -0.051 0.556 -0.123 c 0.136 -0.075 0.285 -0.261 0.426 -0.449 c 1.306 -1.746 2.077 -3.866 2.21 -6.038 c -0.722 0.378 -1.253 0.998 -1.758 2.005 C 61.508 75.024 60.354 76.429 58.931 77.496 z" style="stroke: none; stroke-width: 1; stroke-dasharray: none; stroke-linecap: butt; stroke-linejoin: miter; stroke-miterlimit: 10; fill: rgb(0,0,0); fill-rule: nonzero; opacity: 1;" transform=" matrix(1 0 0 1 0 0) " stroke-linecap="round" />
</g>
</svg>